<svg xmlns="http://www.w3.org/2000/svg" xmlns:xlink="http://www.w3.org/1999/xlink" version="1.1" x="0px" y="0px" viewBox="0 0 90 90" enable-background="new 0 0 90 90" xml:space="preserve"><path d="M51.868,73.711L47.59,66.93H24.21c-1.433,0-2.596-1.161-2.596-2.595V10.996c0-1.433,1.164-2.594,2.596-2.594h27.979  c1.434,0,2.595,1.162,2.595,2.594v25.919c0.019,0.031,0.044,0.057,0.063,0.089l0.473,0.786c2.086,3.463,2.32,7.629,0.771,11.225  l4.473,7.088V9.339c0-3.916-3.177-7.089-7.091-7.089H22.925c-3.915,0-7.088,3.173-7.088,7.089v63.795  c0,3.915,3.174,7.089,7.088,7.089H51C50.701,78.023,50.981,75.773,51.868,73.711z M38.201,77.05c-1.724,0-3.121-1.396-3.121-3.119  c0-1.722,1.396-3.118,3.121-3.118c1.721,0,3.118,1.396,3.118,3.118C41.318,75.653,39.922,77.05,38.201,77.05z" fill="currentColor"></path><path d="M44.234,45.659c2.101-1.267,2.777-3.993,1.512-6.088l-2.708-4.5c3.254-0.489,6.631,0.971,8.434,3.964l0.476,0.79  c1.8,2.993,1.514,6.663-0.441,9.308l12.547,19.885c3.255-0.493,6.629,0.966,8.435,3.963l0.474,0.782  c1.802,2.997,1.518,6.671-0.439,9.313l-2.708-4.497c-1.265-2.1-3.99-2.776-6.092-1.511c-2.1,1.265-2.774,3.994-1.511,6.093  l2.71,4.498c-3.252,0.487-6.633-0.975-8.434-3.967l-0.478-0.79c-1.798-2.995-1.514-6.66,0.44-9.309L43.908,53.712  c-3.256,0.489-6.631-0.971-8.437-3.965L35,48.96c-1.804-2.994-1.52-6.662,0.435-9.311l2.709,4.496  C39.407,46.245,42.137,46.923,44.234,45.659z" fill="currentColor"></path></svg>