<svg width="17" height="17" viewBox="0 0 17 17" fill="none" xmlns="http://www.w3.org/2000/svg">
<path fill-rule="evenodd" clip-rule="evenodd" d="M11.5 6.5C11.5 9.26142 9.26142 11.5 6.5 11.5C3.73858 11.5 1.5 9.26142 1.5 6.5C1.5 3.73858 3.73858 1.5 6.5 1.5C9.26142 1.5 11.5 3.73858 11.5 6.5ZM10.5352 11.5961C9.42667 12.4751 8.02464 13 6.5 13C2.91015 13 0 10.0899 0 6.5C0 2.91015 2.91015 0 6.5 0C10.0899 0 13 2.91015 13 6.5C13 8.02474 12.475 9.42686 11.5959 10.5355L16 14.9394C16.2929 15.2323 16.2929 15.7072 16 16.0001C15.7072 16.293 15.2323 16.293 14.9394 16.0001L10.5352 11.5961Z" fill="black"/>
</svg>
