<svg width="24" height="24" viewBox="0 0 24 24" fill="none" xmlns="http://www.w3.org/2000/svg">
<path d="M12.474 12.1368C15.0335 12.1368 17.1083 10.0353 17.1083 7.44291C17.1083 4.85055 15.0335 2.74902 12.474 2.74902C9.91448 2.74902 7.8396 4.85055 7.8396 7.44291C7.8396 10.0353 9.91448 12.1368 12.474 12.1368Z" fill="black" stroke="black" stroke-width="1.5"/>
<path fill-rule="evenodd" clip-rule="evenodd" d="M21.1973 21.2486C21.1973 16.3686 17.2919 12.4131 12.4738 12.4131C7.65566 12.4131 3.75024 16.3686 3.75024 21.2486H21.1973ZM3.75024 21.2486H21.1973Z" fill="black"/>
<path d="M3.75024 21.2486H21.1973M21.1973 21.2486C21.1973 16.3686 17.2919 12.4131 12.4738 12.4131C7.65566 12.4131 3.75024 16.3686 3.75024 21.2486H21.1973Z" stroke="black" stroke-width="1.5" stroke-linecap="round" stroke-linejoin="round"/>
</svg>
