<svg width="64" height="64" viewBox="0 0 64 64" fill="none" xmlns="http://www.w3.org/2000/svg">
<mask id="mask0_2270_231485" style="mask-type:alpha" maskUnits="userSpaceOnUse" x="0" y="0" width="64" height="64">
<rect width="64" height="64" fill="#F6F6F6"/>
</mask>
<g mask="url(#mask0_2270_231485)">
</g>
<path fill-rule="evenodd" clip-rule="evenodd" d="M47.7491 12.3129C49.2871 10.1911 51.5443 9.96673 52.8437 11.2061C53.3869 11.7242 53.8221 12.4496 53.9256 13.2767C54.0324 14.1301 53.7762 15.0262 53.0456 15.8101C52.7429 16.1348 52.1377 16.5756 51.4442 17.0415C50.9883 17.3477 50.4627 17.685 49.8991 18.037C49.8996 18.0625 49.8999 18.088 49.8999 18.1137V29.1486C49.8999 30.0501 49.6013 30.8819 49.0975 31.5507C48.9256 32.222 48.5766 32.8574 48.0507 33.383L29.3222 52.0966C27.7595 53.6581 25.2258 53.6581 23.6631 52.0966L11.9025 40.3453C10.3398 38.7838 10.3398 36.2522 11.9025 34.6907L30.631 15.977C31.1439 15.4646 31.7614 15.1203 32.4148 14.9442C33.0901 14.4244 33.9362 14.1152 34.8546 14.1152L45.8983 14.1152C47.5269 14.1152 48.9283 15.0874 49.5529 16.4826C49.9346 16.2405 50.29 16.0097 50.6078 15.7963C51.3278 15.3127 51.7834 14.9643 51.9483 14.7874C52.3864 14.3173 52.4869 13.8602 52.4372 13.463C52.3842 13.0396 52.1497 12.617 51.8084 12.2916C51.3391 11.8439 50.1189 11.5994 48.9635 13.1932C48.7204 13.5286 48.2515 13.6034 47.9161 13.3603C47.5807 13.1172 47.506 12.6482 47.7491 12.3129ZM48.259 17.2865C47.9173 16.3128 46.9894 15.6146 45.8983 15.6146L34.8546 15.6146C34.279 15.6146 33.7526 15.8071 33.3305 16.132L33.0939 16.3142L32.8055 16.3919C32.3989 16.5015 32.0144 16.7152 31.6921 17.0373L12.9636 35.751C11.9869 36.7269 11.9869 38.3092 12.9636 39.2851L24.7242 51.0364C25.7009 52.0123 27.2844 52.0123 28.2611 51.0364L46.9896 32.3227C47.3201 31.9925 47.5367 31.597 47.6437 31.179L47.7181 30.8886L47.8985 30.649C48.2133 30.2312 48.3993 29.7137 48.3993 29.1486L48.3993 18.9555C47.822 19.3032 47.2321 19.6527 46.6559 19.9902C46.7475 20.3086 46.7965 20.645 46.7965 20.9929C46.7965 22.9939 45.1735 24.6152 43.1724 24.6152C41.1713 24.6152 39.5482 22.9939 39.5482 20.9929C39.5482 18.992 41.1713 17.3707 43.1724 17.3707C44.2872 17.3707 45.2846 17.8739 45.9495 18.6655C46.6665 18.2453 47.4029 17.8073 48.1074 17.3788C48.1581 17.348 48.2086 17.3172 48.259 17.2865ZM42.7887 20.4789C43.3086 20.1876 43.9366 19.8312 44.6186 19.4386C44.2395 19.0863 43.7312 18.8707 43.1724 18.8707C41.9987 18.8707 41.0482 19.8213 41.0482 20.9929C41.0482 22.1645 41.9987 23.1152 43.1724 23.1152C44.346 23.1152 45.2965 22.1645 45.2965 20.9929C45.2965 20.9227 45.2931 20.8533 45.2864 20.7849C44.6298 21.1626 44.0256 21.5052 43.5221 21.7874C43.1607 21.99 42.7036 21.8612 42.5011 21.4999C42.2986 21.1385 42.4274 20.6814 42.7887 20.4789ZM30.3811 25.3718C30.7953 25.3718 31.1311 25.7076 31.1311 26.1218V41.2258C31.1311 41.64 30.7953 41.9758 30.3811 41.9758C29.9669 41.9758 29.6311 41.64 29.6311 41.2258V26.1218C29.6311 25.7076 29.9669 25.3718 30.3811 25.3718ZM24.859 32.2287C24.062 32.2287 23.4167 32.8742 23.4167 33.6695C23.4167 34.4648 24.062 35.1104 24.859 35.1104C25.6561 35.1104 26.3013 34.4648 26.3013 33.6695C26.3013 32.8742 25.6561 32.2287 24.859 32.2287ZM21.9167 33.6695C21.9167 32.0449 23.2345 30.7287 24.859 30.7287C26.4835 30.7287 27.8013 32.0449 27.8013 33.6695C27.8013 35.2942 26.4835 36.6104 24.859 36.6104C23.2345 36.6104 21.9167 35.2942 21.9167 33.6695ZM34.4605 33.6695C34.4605 32.8742 35.1057 32.2287 35.9028 32.2287C36.6998 32.2287 37.3451 32.8742 37.3451 33.6695C37.3451 34.4648 36.6998 35.1104 35.9028 35.1104C35.1057 35.1104 34.4605 34.4648 34.4605 33.6695ZM35.9028 30.7287C34.2783 30.7287 32.9605 32.0449 32.9605 33.6695C32.9605 35.2942 34.2783 36.6104 35.9028 36.6104C37.5273 36.6104 38.8451 35.2942 38.8451 33.6695C38.8451 32.0449 37.5273 30.7287 35.9028 30.7287Z" fill="black"/>
</svg>
