<svg width="96" height="16" viewBox="0 0 96 16" fill="none" xmlns="http://www.w3.org/2000/svg">
<path d="M8.01486 0C7.70975 0 7.44278 0.156098 7.29023 0.507317L5.72654 5.65854H0.768504C0.0820075 5.65854 -0.261241 6.51707 0.234562 7.02439L4.35354 10.0683L2.67544 15.0244C2.56102 15.5317 2.98055 16 3.43821 16C3.55263 16 3.70519 15.961 3.8196 15.8829L8.01486 12.6829L12.172 15.8829C12.2864 15.961 12.439 16 12.5534 16C13.011 16 13.4306 15.5317 13.278 14.9854L11.5999 10.0293L15.757 7.02439C16.2528 6.5561 15.9477 5.65854 15.2231 5.65854H10.265L8.7395 0.507317C8.58694 0.156098 8.31997 0 8.01486 0Z" fill="#F7B500"/>
<path d="M28.0149 0C27.7098 0 27.4428 0.156098 27.2902 0.507317L25.7265 5.65854H20.7685C20.082 5.65854 19.7388 6.51707 20.2346 7.02439L24.3535 10.0683L22.6754 15.0244C22.561 15.5317 22.9806 16 23.4382 16C23.5526 16 23.7052 15.961 23.8196 15.8829L28.0149 12.6829L32.172 15.8829C32.2864 15.961 32.439 16 32.5534 16C33.011 16 33.4306 15.5317 33.278 14.9854L31.5999 10.0293L35.757 7.02439C36.2528 6.5561 35.9477 5.65854 35.2231 5.65854H30.265L28.7395 0.507317C28.5869 0.156098 28.32 0 28.0149 0Z" fill="#F7B500"/>
<path d="M48.0149 0C47.7098 0 47.4428 0.156098 47.2902 0.507317L45.7265 5.65854H40.7685C40.082 5.65854 39.7388 6.51707 40.2346 7.02439L44.3535 10.0683L42.6754 15.0244C42.561 15.5317 42.9806 16 43.4382 16C43.5526 16 43.7052 15.961 43.8196 15.8829L48.0149 12.6829L52.172 15.8829C52.2864 15.961 52.439 16 52.5534 16C53.011 16 53.4306 15.5317 53.278 14.9854L51.5999 10.0293L55.757 7.02439C56.2528 6.5561 55.9477 5.65854 55.2231 5.65854H50.265L48.7395 0.507317C48.5869 0.156098 48.32 0 48.0149 0Z" fill="#F7B500"/>
<path d="M68.0149 0C67.7098 0 67.4428 0.156098 67.2902 0.507317L65.7265 5.65854H60.7685C60.082 5.65854 59.7388 6.51707 60.2346 7.02439L64.3535 10.0683L62.6754 15.0244C62.561 15.5317 62.9806 16 63.4382 16C63.5526 16 63.7052 15.961 63.8196 15.8829L68.0149 12.6829L72.172 15.8829C72.2864 15.961 72.439 16 72.5534 16C73.011 16 73.4306 15.5317 73.278 14.9854L71.5999 10.0293L75.757 7.02439C76.2528 6.5561 75.9477 5.65854 75.2231 5.65854H70.265L68.7395 0.507317C68.5869 0.156098 68.32 0 68.0149 0Z" fill="#F7B500"/>
<path d="M88.0149 0C87.7098 0 87.4428 0.156098 87.2902 0.507317L85.7265 5.65854H80.7685C80.082 5.65854 79.7388 6.51707 80.2346 7.02439L84.3535 10.0683L82.6754 15.0244C82.561 15.5317 82.9806 16 83.4382 16C83.5526 16 83.7052 15.961 83.8196 15.8829L88.0149 12.6829L92.172 15.8829C92.2864 15.961 92.439 16 92.5534 16C93.011 16 93.4306 15.5317 93.278 14.9854L91.5999 10.0293L95.757 7.02439C96.2528 6.5561 95.9477 5.65854 95.2231 5.65854H90.265L88.7395 0.507317C88.5869 0.156098 88.32 0 88.0149 0Z" fill="#F7B500"/>
</svg>
