<svg width="96" height="16" viewBox="0 0 96 16" fill="none" xmlns="http://www.w3.org/2000/svg">
<path d="M5.72654 6.15854H6.09729L6.20498 5.80377L7.75916 0.683863C7.80012 0.598368 7.84306 0.557795 7.87337 0.537522C7.90596 0.515716 7.94977 0.5 8.01486 0.5C8.07995 0.5 8.12376 0.515716 8.15636 0.537523C8.1865 0.557691 8.22917 0.59795 8.26992 0.68254L9.78563 5.80052L9.89166 6.15854H10.265H15.2231C15.3506 6.15854 15.4373 6.22752 15.4789 6.33965C15.5203 6.45148 15.5004 6.56473 15.4308 6.64326L11.307 9.62405L11.008 9.84017L11.1263 10.1896L12.7992 15.1302C12.8523 15.3441 12.6867 15.5 12.5534 15.5C12.549 15.5 12.5296 15.4986 12.503 15.4908C12.483 15.485 12.4685 15.4783 12.46 15.4736L8.31985 12.2867L8.01625 12.053L7.71162 12.2854L3.53214 15.4733C3.52375 15.478 3.50903 15.4848 3.48861 15.4908C3.46197 15.4986 3.44256 15.5 3.43821 15.5C3.37945 15.5 3.29553 15.4667 3.22915 15.3857C3.17121 15.3149 3.14754 15.2331 3.15957 15.1536L4.82713 10.2286L4.94415 9.88304L4.6507 9.66618L0.57102 6.65132C0.493031 6.55595 0.482188 6.43892 0.52331 6.33465C0.5678 6.22183 0.656991 6.15854 0.768504 6.15854H5.72654Z" stroke="#BBBBBB"/>
<path d="M25.7265 6.15854H26.0973L26.205 5.80377L27.7592 0.683863C27.8001 0.598368 27.8431 0.557795 27.8734 0.537522C27.906 0.515716 27.9498 0.5 28.0149 0.5C28.0799 0.5 28.1238 0.515716 28.1564 0.537523C28.1865 0.557691 28.2292 0.59795 28.2699 0.68254L29.7856 5.80052L29.8917 6.15854H30.265H35.2231C35.3506 6.15854 35.4373 6.22752 35.4789 6.33965C35.5203 6.45148 35.5004 6.56473 35.4308 6.64326L31.307 9.62405L31.008 9.84017L31.1263 10.1896L32.7992 15.1302C32.8523 15.3441 32.6867 15.5 32.5534 15.5C32.549 15.5 32.5296 15.4986 32.503 15.4908C32.483 15.485 32.4685 15.4783 32.46 15.4736L28.3198 12.2867L28.0162 12.053L27.7116 12.2854L23.5321 15.4733C23.5238 15.478 23.509 15.4848 23.4886 15.4908C23.462 15.4986 23.4426 15.5 23.4382 15.5C23.3794 15.5 23.2955 15.4667 23.2292 15.3857C23.1712 15.3149 23.1475 15.2331 23.1596 15.1536L24.8271 10.2286L24.9442 9.88304L24.6507 9.66618L20.571 6.65132C20.493 6.55595 20.4822 6.43892 20.5233 6.33465C20.5678 6.22183 20.657 6.15854 20.7685 6.15854H25.7265Z" stroke="#BBBBBB"/>
<path d="M45.7265 6.15854H46.0973L46.205 5.80377L47.7592 0.683863C47.8001 0.598368 47.8431 0.557795 47.8734 0.537522C47.906 0.515716 47.9498 0.5 48.0149 0.5C48.0799 0.5 48.1238 0.515716 48.1564 0.537523C48.1865 0.557691 48.2292 0.59795 48.2699 0.68254L49.7856 5.80052L49.8917 6.15854H50.265H55.2231C55.3506 6.15854 55.4373 6.22752 55.4789 6.33965C55.5203 6.45148 55.5004 6.56473 55.4308 6.64326L51.307 9.62405L51.008 9.84017L51.1263 10.1896L52.7992 15.1302C52.8523 15.3441 52.6867 15.5 52.5534 15.5C52.549 15.5 52.5296 15.4986 52.503 15.4908C52.483 15.485 52.4685 15.4783 52.46 15.4736L48.3198 12.2867L48.0162 12.053L47.7116 12.2854L43.5321 15.4733C43.5238 15.478 43.509 15.4848 43.4886 15.4908C43.462 15.4986 43.4426 15.5 43.4382 15.5C43.3794 15.5 43.2955 15.4667 43.2292 15.3857C43.1712 15.3149 43.1475 15.2331 43.1596 15.1536L44.8271 10.2286L44.9442 9.88304L44.6507 9.66618L40.571 6.65132C40.493 6.55595 40.4822 6.43892 40.5233 6.33465C40.5678 6.22183 40.657 6.15854 40.7685 6.15854H45.7265Z" stroke="#BBBBBB"/>
<path d="M65.7265 6.15854H66.0973L66.205 5.80377L67.7592 0.683863C67.8001 0.598368 67.8431 0.557795 67.8734 0.537522C67.906 0.515716 67.9498 0.5 68.0149 0.5C68.0799 0.5 68.1238 0.515716 68.1564 0.537523C68.1865 0.557691 68.2292 0.59795 68.2699 0.68254L69.7856 5.80052L69.8917 6.15854H70.265H75.2231C75.3506 6.15854 75.4373 6.22752 75.4789 6.33965C75.5203 6.45148 75.5004 6.56473 75.4308 6.64326L71.307 9.62405L71.008 9.84017L71.1263 10.1896L72.7992 15.1302C72.8523 15.3441 72.6867 15.5 72.5534 15.5C72.549 15.5 72.5296 15.4986 72.503 15.4908C72.483 15.485 72.4685 15.4783 72.46 15.4736L68.3198 12.2867L68.0162 12.053L67.7116 12.2854L63.5321 15.4733C63.5238 15.478 63.509 15.4848 63.4886 15.4908C63.462 15.4986 63.4426 15.5 63.4382 15.5C63.3794 15.5 63.2955 15.4667 63.2292 15.3857C63.1712 15.3149 63.1475 15.2331 63.1596 15.1536L64.8271 10.2286L64.9442 9.88304L64.6507 9.66618L60.571 6.65132C60.493 6.55595 60.4822 6.43892 60.5233 6.33465C60.5678 6.22183 60.657 6.15854 60.7685 6.15854H65.7265Z" stroke="#BBBBBB"/>
<path d="M85.7265 6.15854H86.0973L86.205 5.80377L87.7592 0.683863C87.8001 0.598368 87.8431 0.557795 87.8734 0.537522C87.906 0.515716 87.9498 0.5 88.0149 0.5C88.0799 0.5 88.1238 0.515716 88.1564 0.537523C88.1865 0.557691 88.2292 0.59795 88.2699 0.68254L89.7856 5.80052L89.8917 6.15854H90.265H95.2231C95.3506 6.15854 95.4373 6.22752 95.4789 6.33965C95.5203 6.45148 95.5004 6.56473 95.4308 6.64326L91.307 9.62405L91.008 9.84017L91.1263 10.1896L92.7992 15.1302C92.8523 15.3441 92.6867 15.5 92.5534 15.5C92.549 15.5 92.5296 15.4986 92.503 15.4908C92.483 15.485 92.4685 15.4783 92.46 15.4736L88.3198 12.2867L88.0162 12.053L87.7116 12.2854L83.5321 15.4733C83.5238 15.478 83.509 15.4848 83.4886 15.4908C83.462 15.4986 83.4426 15.5 83.4382 15.5C83.3794 15.5 83.2955 15.4667 83.2292 15.3857C83.1712 15.3149 83.1475 15.2331 83.1596 15.1536L84.8271 10.2286L84.9442 9.88304L84.6507 9.66618L80.571 6.65132C80.493 6.55595 80.4822 6.43892 80.5233 6.33465C80.5678 6.22183 80.657 6.15854 80.7685 6.15854H85.7265Z" stroke="#BBBBBB"/>
</svg>
