<svg width="24" height="24" viewBox="0 0 24 24" fill="none" xmlns="http://www.w3.org/2000/svg">
<path fill-rule="evenodd" clip-rule="evenodd" d="M9.38989 4.02985C11.888 2.59789 15.0912 3.43159 16.5294 5.95053C17.4918 7.63417 17.4302 9.61271 16.5311 11.174C16.5162 11.1999 16.5 11.2241 16.4828 11.2465L13.7938 15.9048C12.9987 17.2821 11.0107 17.2817 10.2162 15.9042L7.50631 11.2062L7.47526 11.1545L7.46869 11.1436L7.4688 11.1435C6.04694 8.65637 6.89433 5.45554 9.38989 4.02985ZM15.4873 6.54554C14.384 4.6131 11.9193 3.96291 9.98633 5.07113L9.98548 5.07162C8.07456 6.16307 7.41455 8.62402 8.50752 10.5426L8.53786 10.5931L8.54325 10.6021L8.54317 10.6021L11.2556 15.3046C11.5885 15.8818 12.4214 15.8819 12.7545 15.3049L15.4859 10.5731C15.4997 10.5493 15.5144 10.527 15.53 10.5062C16.1853 9.31478 16.2182 7.82401 15.4875 6.54582L15.4873 6.54554ZM10.2781 17.0734C10.2949 17.4043 10.0402 17.6862 9.70923 17.703C7.9748 17.7909 6.49391 17.9807 5.46053 18.2251C4.99843 18.3344 4.65114 18.4488 4.41716 18.5574C4.44074 18.5683 4.46606 18.5796 4.49322 18.5911C4.85792 18.7462 5.42234 18.8997 6.16495 19.0337C7.64041 19.3 9.70348 19.469 12 19.469C14.2966 19.469 16.3596 19.3 17.8351 19.0337C18.5777 18.8997 19.1421 18.7462 19.5068 18.5911C19.534 18.5796 19.5593 18.5683 19.5829 18.5574C19.3489 18.4488 19.0016 18.3344 18.5395 18.2251C17.5061 17.9807 16.0252 17.7909 14.2908 17.703C13.9599 17.6862 13.7052 17.4043 13.722 17.0734C13.7387 16.7424 14.0206 16.4877 14.3516 16.5045C16.1272 16.5945 17.6865 16.7902 18.8157 17.0573C19.3755 17.1897 19.8621 17.347 20.2225 17.535C20.4019 17.6285 20.5802 17.745 20.7208 17.8942C20.8637 18.0458 21.0015 18.2695 21.0015 18.5567C21.0015 18.9044 20.803 19.1563 20.6266 19.3111C20.4468 19.4688 20.2166 19.5933 19.9764 19.6954C19.4912 19.9017 18.8257 20.0744 18.0482 20.2146C16.4835 20.497 14.3458 20.669 12 20.669C9.65424 20.669 7.51656 20.497 5.95186 20.2146C5.17439 20.0744 4.50887 19.9017 4.02366 19.6954C3.78348 19.5933 3.55329 19.4688 3.37349 19.3111C3.19701 19.1563 2.99854 18.9044 2.99854 18.5567C2.99854 18.2695 3.13636 18.0458 3.27922 17.8942C3.41985 17.745 3.59816 17.6285 3.77751 17.535C4.13792 17.347 4.62456 17.1897 5.18433 17.0573C6.31359 16.7902 7.87286 16.5945 9.64848 16.5045C9.97943 16.4877 10.2613 16.7424 10.2781 17.0734ZM19.8501 18.3948C19.8501 18.3948 19.8496 18.3954 19.8484 18.3966L19.8501 18.3948ZM4.14998 18.3948L4.15167 18.3967L4.15062 18.3955C4.15016 18.395 4.14995 18.3948 4.14998 18.3948ZM10.9294 7.93288C11.2734 7.33302 12.0267 7.12963 12.6216 7.4786L12.6216 7.47863L12.6267 7.4816C13.2074 7.81448 13.4142 8.53909 13.1158 9.11158L13.106 9.1214L13.0662 9.19072C12.7252 9.7855 11.9638 9.98381 11.3771 9.63497L11.3772 9.63491L11.3689 9.63018C10.775 9.28969 10.574 8.53884 10.9264 7.93806L10.9265 7.93807L10.9294 7.93288ZM9.8899 7.33342C10.5622 6.16412 12.0503 5.75408 13.2262 6.44206C14.3954 7.1143 14.808 8.61723 14.1143 9.78398L14.0759 9.8485L14.0635 9.86087C13.3699 10.9795 11.9046 11.3417 10.7679 10.6688C9.59387 9.99277 9.20567 8.50289 9.8899 7.33342Z" fill="black"/>
</svg>
