<svg width="24" height="24" viewBox="0 0 24 24" fill="none" xmlns="http://www.w3.org/2000/svg">
<path fill-rule="evenodd" clip-rule="evenodd" d="M8.92254 7.30038C8.92254 5.5836 10.3141 4.19988 12.023 4.19988C12.8777 4.19988 13.6449 4.54669 14.2182 5.10165C14.7857 5.67076 15.1335 6.45398 15.1335 7.30038V8.81971H8.92254V7.30038ZM7.72254 8.81971V7.30038C7.72254 4.91876 9.65346 2.99988 12.023 2.99988C13.216 2.99988 14.2779 3.48736 15.0571 4.24367L15.0636 4.24991L15.0635 4.24995C15.847 5.03345 16.3335 6.11904 16.3335 7.30038V8.81971H17.4668C18.9028 8.81971 20.0668 9.98377 20.0668 11.4197V18.4004C20.0668 19.8363 18.9028 21.0004 17.4668 21.0004H6.53311C5.09717 21.0004 3.93311 19.8363 3.93311 18.4004V11.4197C3.93311 9.98377 5.09717 8.81971 6.53311 8.81971H7.72254ZM5.13311 11.4197C5.13311 10.6465 5.75991 10.0197 6.53311 10.0197H17.4668C18.24 10.0197 18.8668 10.6465 18.8668 11.4197V18.4004C18.8668 19.1736 18.24 19.8004 17.4668 19.8004H6.53311C5.75991 19.8004 5.13311 19.1736 5.13311 18.4004V11.4197ZM12.7266 12.4508C12.9609 12.2165 13.3408 12.2165 13.5751 12.4508L14.666 13.5418C14.8376 13.7134 14.889 13.9714 14.7961 14.1956C14.7032 14.4198 14.4845 14.566 14.2418 14.566H9.878C9.54663 14.566 9.278 14.2974 9.278 13.966C9.278 13.6347 9.54663 13.366 9.878 13.366H12.7933L12.7266 13.2993C12.4923 13.065 12.4923 12.6851 12.7266 12.4508ZM10.5463 17.2274C10.7806 17.4617 11.1605 17.4617 11.3948 17.2274C11.6291 16.9931 11.6291 16.6132 11.3948 16.3789L11.3281 16.3122H14.2434C14.5747 16.3122 14.8434 16.0435 14.8434 15.7122C14.8434 15.3808 14.5747 15.1122 14.2434 15.1122L9.87957 15.1122C9.6369 15.1122 9.41811 15.2584 9.32525 15.4826C9.23238 15.7068 9.28371 15.9648 9.45531 16.1364L10.5463 17.2274Z" fill="black"/>
</svg>
