<svg width="64" height="64" viewBox="0 0 64 64" fill="none" xmlns="http://www.w3.org/2000/svg">
<mask id="mask0_2270_231460" style="mask-type:alpha" maskUnits="userSpaceOnUse" x="0" y="0" width="64" height="64">
<rect width="64" height="64" fill="#F6F6F6"/>
</mask>
<g mask="url(#mask0_2270_231460)">
</g>
<rect x="26.1133" y="9.06066" width="40.7663" height="24.1159" rx="3.25" transform="rotate(45 26.1133 9.06066)" stroke="black" stroke-width="1.5"/>
<rect x="8.75" y="18.5273" width="46.5" height="27.3" rx="3.25" fill="white" stroke="black" stroke-width="1.5"/>
<path d="M43.375 18.7188V45.4245" stroke="black" stroke-width="1.5"/>
<path d="M8.73047 28.1055H54.9242" stroke="black" stroke-width="1.5"/>
<path d="M43.3728 30.2656L38.3203 35.3181" stroke="black" stroke-width="1.5" stroke-linecap="round"/>
<path d="M44.0882 30.2656L49.1406 35.3181" stroke="black" stroke-width="1.5" stroke-linecap="round"/>
<path d="M43.3732 30.2689C43.3734 27.3781 40.0467 22.1362 37.5971 23.7697C35.4312 25.2138 36.1564 29.5472 43.3732 30.2689Z" fill="white" stroke="black" stroke-width="1.5"/>
<path d="M44.0917 30.2689C44.0914 27.3781 47.4181 22.1362 49.8678 23.7697C52.0336 25.2138 51.3084 29.5472 44.0917 30.2689Z" fill="white" stroke="black" stroke-width="1.5"/>
</svg>
