<svg width="24" height="24" viewBox="0 0 24 24" fill="none" xmlns="http://www.w3.org/2000/svg">
<g clip-path="url(#clip0_1753_34545)">
<path fill-rule="evenodd" clip-rule="evenodd" d="M23.5298 1.53033C23.8227 1.23743 23.8227 0.762561 23.5298 0.469669C23.2369 0.176777 22.7621 0.176777 22.4692 0.469669L11.9998 10.9389L1.53062 0.469791C1.23773 0.176899 0.762855 0.176899 0.469961 0.469791C0.177067 0.762684 0.177067 1.23756 0.469961 1.53045L10.9392 11.9996L0.469671 22.469C0.176776 22.7619 0.176777 23.2368 0.469671 23.5297C0.762565 23.8226 1.23744 23.8226 1.53033 23.5297L11.9998 13.0602L22.4695 23.5298C22.7624 23.8227 23.2372 23.8227 23.5301 23.5298C23.823 23.2369 23.823 22.762 23.5301 22.4691L13.0605 11.9996L23.5298 1.53033Z" fill="white"/>
</g>
<defs>
<clipPath id="clip0_1753_34545">
<rect width="23.9999" height="24" fill="white"/>
</clipPath>
</defs>
</svg>
