<svg width="64" height="64" viewBox="0 0 64 64" fill="none" xmlns="http://www.w3.org/2000/svg">
<mask id="mask0_2270_231512" style="mask-type:alpha" maskUnits="userSpaceOnUse" x="0" y="0" width="64" height="64">
<rect width="64" height="64" fill="#F6F6F6"/>
</mask>
<g mask="url(#mask0_2270_231512)">
</g>
<mask id="path-2-inside-1_2270_231512" fill="white">
<path fill-rule="evenodd" clip-rule="evenodd" d="M33.2 15.0977H14C11.5147 15.0977 9.5 17.1124 9.5 19.5977V33.457H37.7V19.5977C37.7 17.1124 35.6853 15.0977 33.2 15.0977ZM9.5 39.9977V34.957H37.7V42.4977H23.0319C22.1799 40.4152 20.1416 38.9489 17.7627 38.9489C15.3837 38.9489 13.3455 40.4152 12.4935 42.4977H12C10.6193 42.4977 9.5 41.3784 9.5 39.9977ZM12.107 43.9977H12C9.79086 43.9977 8 42.2068 8 39.9977V19.5977C8 16.2839 10.6863 13.5977 14 13.5977H33.2C36.5137 13.5977 39.2 16.2839 39.2 19.5977V19.9977H39.5H43.6908C45.9376 19.9977 47.996 21.2529 49.0248 23.2502L52.7578 30.4977L53.2335 31.4213L54.5431 32.0553C55.9233 32.7236 56.8 34.1221 56.8 35.6555V42.4977C56.8 43.3261 56.1284 43.9977 55.3 43.9977H52.7064C52.7324 44.2193 52.7457 44.4448 52.7457 44.6735C52.7457 47.835 50.196 50.3979 47.0508 50.3979C43.9056 50.3979 41.3559 47.835 41.3559 44.6735C41.3559 44.4448 41.3692 44.2193 41.3951 43.9977H39.2L38.001 43.9977L37.7 43.9977H23.4183C23.4443 44.2193 23.4576 44.4448 23.4576 44.6734C23.4576 47.8349 20.9079 50.3978 17.7627 50.3978C14.6175 50.3978 12.0678 47.8349 12.0678 44.6734C12.0678 44.4448 12.0811 44.2193 12.107 43.9977ZM52.3199 42.4977C51.4679 40.4152 49.4297 38.949 47.0508 38.949C44.6719 38.949 42.6336 40.4152 41.7817 42.4977H39.5009L39.5001 32.2977H51.4869C51.5623 32.2977 51.6368 32.3147 51.7048 32.3476L53.8894 33.4054C54.7521 33.823 55.3 34.6971 55.3 35.6555V42.4977H52.3199ZM43.6908 21.4977H39.5V30.4977H51.0705L47.6913 23.9371C46.9197 22.4391 45.3759 21.4977 43.6908 21.4977ZM14.4662 27.4633H13.2782V21.4153H17.1212V22.3783H14.4662V23.8273H16.9322V24.7903H14.4662V27.4633ZM19.3442 22.3783V24.1243H20.4872C20.7992 24.1243 21.0392 24.0523 21.2072 23.9083C21.3812 23.7643 21.4682 23.5453 21.4682 23.2513C21.4682 22.9573 21.3812 22.7383 21.2072 22.5943C21.0392 22.4503 20.7992 22.3783 20.4872 22.3783H19.3442ZM18.1562 27.4633V21.4153H20.4962C21.2222 21.4153 21.7712 21.5683 22.1432 21.8743C22.5152 22.1743 22.7012 22.6333 22.7012 23.2513C22.7012 23.6293 22.6022 23.9653 22.4042 24.2593C22.2122 24.5473 21.9452 24.7603 21.6032 24.8983L22.9352 27.4633H21.6752L20.4422 25.0873H19.3442V27.4633H18.1562ZM28.0425 26.5003V27.4633H23.9745V21.4153H27.9525V22.3783H25.1625V23.8363H27.8535V24.7813H25.1625V26.5003H28.0425ZM33.2808 26.5003V27.4633H29.2128V21.4153H33.1908V22.3783H30.4008V23.8363H33.0918V24.7813H30.4008V26.5003H33.2808Z"/>
</mask>
<path fill-rule="evenodd" clip-rule="evenodd" d="M33.2 15.0977H14C11.5147 15.0977 9.5 17.1124 9.5 19.5977V33.457H37.7V19.5977C37.7 17.1124 35.6853 15.0977 33.2 15.0977ZM9.5 39.9977V34.957H37.7V42.4977H23.0319C22.1799 40.4152 20.1416 38.9489 17.7627 38.9489C15.3837 38.9489 13.3455 40.4152 12.4935 42.4977H12C10.6193 42.4977 9.5 41.3784 9.5 39.9977ZM12.107 43.9977H12C9.79086 43.9977 8 42.2068 8 39.9977V19.5977C8 16.2839 10.6863 13.5977 14 13.5977H33.2C36.5137 13.5977 39.2 16.2839 39.2 19.5977V19.9977H39.5H43.6908C45.9376 19.9977 47.996 21.2529 49.0248 23.2502L52.7578 30.4977L53.2335 31.4213L54.5431 32.0553C55.9233 32.7236 56.8 34.1221 56.8 35.6555V42.4977C56.8 43.3261 56.1284 43.9977 55.3 43.9977H52.7064C52.7324 44.2193 52.7457 44.4448 52.7457 44.6735C52.7457 47.835 50.196 50.3979 47.0508 50.3979C43.9056 50.3979 41.3559 47.835 41.3559 44.6735C41.3559 44.4448 41.3692 44.2193 41.3951 43.9977H39.2L38.001 43.9977L37.7 43.9977H23.4183C23.4443 44.2193 23.4576 44.4448 23.4576 44.6734C23.4576 47.8349 20.9079 50.3978 17.7627 50.3978C14.6175 50.3978 12.0678 47.8349 12.0678 44.6734C12.0678 44.4448 12.0811 44.2193 12.107 43.9977ZM52.3199 42.4977C51.4679 40.4152 49.4297 38.949 47.0508 38.949C44.6719 38.949 42.6336 40.4152 41.7817 42.4977H39.5009L39.5001 32.2977H51.4869C51.5623 32.2977 51.6368 32.3147 51.7048 32.3476L53.8894 33.4054C54.7521 33.823 55.3 34.6971 55.3 35.6555V42.4977H52.3199ZM43.6908 21.4977H39.5V30.4977H51.0705L47.6913 23.9371C46.9197 22.4391 45.3759 21.4977 43.6908 21.4977ZM14.4662 27.4633H13.2782V21.4153H17.1212V22.3783H14.4662V23.8273H16.9322V24.7903H14.4662V27.4633ZM19.3442 22.3783V24.1243H20.4872C20.7992 24.1243 21.0392 24.0523 21.2072 23.9083C21.3812 23.7643 21.4682 23.5453 21.4682 23.2513C21.4682 22.9573 21.3812 22.7383 21.2072 22.5943C21.0392 22.4503 20.7992 22.3783 20.4872 22.3783H19.3442ZM18.1562 27.4633V21.4153H20.4962C21.2222 21.4153 21.7712 21.5683 22.1432 21.8743C22.5152 22.1743 22.7012 22.6333 22.7012 23.2513C22.7012 23.6293 22.6022 23.9653 22.4042 24.2593C22.2122 24.5473 21.9452 24.7603 21.6032 24.8983L22.9352 27.4633H21.6752L20.4422 25.0873H19.3442V27.4633H18.1562ZM28.0425 26.5003V27.4633H23.9745V21.4153H27.9525V22.3783H25.1625V23.8363H27.8535V24.7813H25.1625V26.5003H28.0425ZM33.2808 26.5003V27.4633H29.2128V21.4153H33.1908V22.3783H30.4008V23.8363H33.0918V24.7813H30.4008V26.5003H33.2808Z" fill="white"/>
<path d="M9.5 33.457H7.5V35.457H9.5V33.457ZM37.7 33.457V35.457H39.7V33.457H37.7ZM9.5 34.957V32.957H7.5V34.957H9.5ZM37.7 34.957H39.7V32.957H37.7V34.957ZM37.7 42.4977V44.4977H39.7V42.4977H37.7ZM23.0319 42.4977L21.1808 43.2549L21.6892 44.4977H23.0319V42.4977ZM12.4935 42.4977V44.4977H13.8362L14.3446 43.2549L12.4935 42.4977ZM12.107 43.9977L14.0935 44.23L14.3546 41.9977H12.107V43.9977ZM39.2 19.9977H37.2V21.9977H39.2V19.9977ZM49.0248 23.2502L47.2468 24.166V24.166L49.0248 23.2502ZM52.7578 30.4977L50.9798 31.4135L50.9798 31.4135L52.7578 30.4977ZM53.2335 31.4213L51.4555 32.3371L51.7612 32.9305L52.362 33.2214L53.2335 31.4213ZM54.5431 32.0553L53.6716 33.8554H53.6716L54.5431 32.0553ZM52.7064 43.9977V41.9977H50.4588L50.72 44.2301L52.7064 43.9977ZM41.3951 43.9977L43.3816 44.2301L43.6428 41.9977H41.3951V43.9977ZM39.2 43.9977V41.9977H39.2L39.2 43.9977ZM38.001 43.9977L38.001 45.9977H38.001L38.001 43.9977ZM37.7 43.9977L37.7 41.9977H37.7V43.9977ZM23.4183 43.9977V41.9977H21.1707L21.4319 44.23L23.4183 43.9977ZM52.3199 42.4977L50.4688 43.255L50.9772 44.4977H52.3199V42.4977ZM41.7817 42.4977V44.4977H43.1243L43.6327 43.255L41.7817 42.4977ZM39.5009 42.4977L37.5009 42.4978L37.5011 44.4977H39.5009V42.4977ZM39.5001 32.2977V30.2977H37.5L37.5001 32.2978L39.5001 32.2977ZM51.7048 32.3476L52.5763 30.5475L52.5763 30.5475L51.7048 32.3476ZM53.8894 33.4054L54.761 31.6053L53.8894 33.4054ZM55.3 42.4977V44.4977H57.3V42.4977H55.3ZM39.5 21.4977V19.4977H37.5V21.4977H39.5ZM39.5 30.4977H37.5V32.4977H39.5V30.4977ZM51.0705 30.4977V32.4977H54.3504L52.8485 29.5818L51.0705 30.4977ZM47.6913 23.9371L49.4693 23.0213V23.0213L47.6913 23.9371ZM13.2782 27.4633H11.2782V29.4633H13.2782V27.4633ZM14.4662 27.4633V29.4633H16.4662V27.4633H14.4662ZM13.2782 21.4153V19.4153H11.2782V21.4153H13.2782ZM17.1212 21.4153H19.1212V19.4153H17.1212V21.4153ZM17.1212 22.3783V24.3783H19.1212V22.3783H17.1212ZM14.4662 22.3783V20.3783H12.4662V22.3783H14.4662ZM14.4662 23.8273H12.4662V25.8273H14.4662V23.8273ZM16.9322 23.8273H18.9322V21.8273H16.9322V23.8273ZM16.9322 24.7903V26.7903H18.9322V24.7903H16.9322ZM14.4662 24.7903V22.7903H12.4662V24.7903H14.4662ZM19.3442 24.1243H17.3442V26.1243H19.3442V24.1243ZM19.3442 22.3783V20.3783H17.3442V22.3783H19.3442ZM21.2072 23.9083L19.932 22.3675L19.9187 22.3785L19.9056 22.3897L21.2072 23.9083ZM21.2072 22.5943L19.9056 24.1128L19.9187 24.124L19.932 24.135L21.2072 22.5943ZM18.1562 21.4153V19.4153H16.1562V21.4153H18.1562ZM18.1562 27.4633H16.1562V29.4633H18.1562V27.4633ZM22.1432 21.8743L20.8726 23.4188L20.8801 23.425L20.8876 23.4311L22.1432 21.8743ZM22.4042 24.2593L20.7453 23.142L20.7401 23.1499L22.4042 24.2593ZM21.6032 24.8983L20.8548 23.0436L18.814 23.867L19.8282 25.82L21.6032 24.8983ZM22.9352 27.4633V29.4633H26.2273L24.7101 26.5415L22.9352 27.4633ZM21.6752 27.4633L19.8999 28.3845L20.4598 29.4633H21.6752V27.4633ZM20.4422 25.0873L22.2174 24.166L21.6575 23.0873H20.4422V25.0873ZM19.3442 25.0873V23.0873H17.3442V25.0873H19.3442ZM19.3442 27.4633V29.4633H21.3442V27.4633H19.3442ZM28.0425 27.4633V29.4633H30.0425V27.4633H28.0425ZM28.0425 26.5003H30.0425V24.5003H28.0425V26.5003ZM23.9745 27.4633H21.9745V29.4633H23.9745V27.4633ZM23.9745 21.4153V19.4153H21.9745V21.4153H23.9745ZM27.9525 21.4153H29.9525V19.4153H27.9525V21.4153ZM27.9525 22.3783V24.3783H29.9525V22.3783H27.9525ZM25.1625 22.3783V20.3783H23.1625V22.3783H25.1625ZM25.1625 23.8363H23.1625V25.8363H25.1625V23.8363ZM27.8535 23.8363H29.8535V21.8363H27.8535V23.8363ZM27.8535 24.7813V26.7813H29.8535V24.7813H27.8535ZM25.1625 24.7813V22.7813H23.1625V24.7813H25.1625ZM25.1625 26.5003H23.1625V28.5003H25.1625V26.5003ZM33.2808 27.4633V29.4633H35.2808V27.4633H33.2808ZM33.2808 26.5003H35.2808V24.5003H33.2808V26.5003ZM29.2128 27.4633H27.2128V29.4633H29.2128V27.4633ZM29.2128 21.4153V19.4153H27.2128V21.4153H29.2128ZM33.1908 21.4153H35.1908V19.4153H33.1908V21.4153ZM33.1908 22.3783V24.3783H35.1908V22.3783H33.1908ZM30.4008 22.3783V20.3783H28.4008V22.3783H30.4008ZM30.4008 23.8363H28.4008V25.8363H30.4008V23.8363ZM33.0918 23.8363H35.0918V21.8363H33.0918V23.8363ZM33.0918 24.7813V26.7813H35.0918V24.7813H33.0918ZM30.4008 24.7813V22.7813H28.4008V24.7813H30.4008ZM30.4008 26.5003H28.4008V28.5003H30.4008V26.5003ZM14 17.0977H33.2V13.0977H14V17.0977ZM11.5 19.5977C11.5 18.2169 12.6193 17.0977 14 17.0977V13.0977C10.4101 13.0977 7.5 16.0078 7.5 19.5977H11.5ZM11.5 33.457V19.5977H7.5V33.457H11.5ZM37.7 31.457H9.5V35.457H37.7V31.457ZM35.7 19.5977V33.457H39.7V19.5977H35.7ZM33.2 17.0977C34.5807 17.0977 35.7 18.2169 35.7 19.5977H39.7C39.7 16.0078 36.7899 13.0977 33.2 13.0977V17.0977ZM7.5 34.957V39.9977H11.5V34.957H7.5ZM37.7 32.957H9.5V36.957H37.7V32.957ZM39.7 42.4977V34.957H35.7V42.4977H39.7ZM23.0319 44.4977H37.7V40.4977H23.0319V44.4977ZM24.8829 41.7404C23.736 38.9369 20.9863 36.9489 17.7627 36.9489V40.9489C19.2969 40.9489 20.6238 41.8935 21.1808 43.2549L24.8829 41.7404ZM17.7627 36.9489C14.539 36.9489 11.7894 38.9369 10.6424 41.7404L14.3446 43.2549C14.9016 41.8935 16.2284 40.9489 17.7627 40.9489V36.9489ZM12 44.4977H12.4935V40.4977H12V44.4977ZM7.5 39.9977C7.5 42.4829 9.51472 44.4977 12 44.4977V40.4977C11.7239 40.4977 11.5 40.2738 11.5 39.9977H7.5ZM12.107 41.9977H12V45.9977H12.107V41.9977ZM12 41.9977C10.8954 41.9977 10 41.1022 10 39.9977H6C6 43.3114 8.68629 45.9977 12 45.9977V41.9977ZM10 39.9977V19.5977H6V39.9977H10ZM10 19.5977C10 17.3885 11.7909 15.5977 14 15.5977V11.5977C9.58172 11.5977 6 15.1794 6 19.5977H10ZM14 15.5977H33.2V11.5977H14V15.5977ZM33.2 15.5977C35.4091 15.5977 37.2 17.3885 37.2 19.5977H41.2C41.2 15.1794 37.6183 11.5977 33.2 11.5977V15.5977ZM37.2 19.5977V19.9977H41.2V19.5977H37.2ZM39.2 21.9977H39.5V17.9977H39.2V21.9977ZM39.5 21.9977H43.6908V17.9977H39.5V21.9977ZM43.6908 21.9977C45.1887 21.9977 46.561 22.8345 47.2468 24.166L50.8028 22.3344C49.4311 19.6713 46.6865 17.9977 43.6908 17.9977V21.9977ZM47.2468 24.166L50.9798 31.4135L54.5358 29.5818L50.8028 22.3344L47.2468 24.166ZM50.9798 31.4135L51.4555 32.3371L55.0115 30.5054L54.5358 29.5818L50.9798 31.4135ZM52.362 33.2214L53.6716 33.8554L55.4147 30.2552L54.1051 29.6211L52.362 33.2214ZM53.6716 33.8554C54.3617 34.1895 54.8 34.8888 54.8 35.6555H58.8C58.8 33.3553 57.485 31.2576 55.4147 30.2552L53.6716 33.8554ZM54.8 35.6555V42.4977H58.8V35.6555H54.8ZM54.8 42.4977C54.8 42.2215 55.0239 41.9977 55.3 41.9977V45.9977C57.233 45.9977 58.8 44.4307 58.8 42.4977H54.8ZM55.3 41.9977H52.7064V45.9977H55.3V41.9977ZM54.7457 44.6735C54.7457 44.367 54.7278 44.0639 54.6929 43.7652L50.72 44.2301C50.7369 44.3747 50.7457 44.5227 50.7457 44.6735H54.7457ZM47.0508 52.3979C51.3103 52.3979 54.7457 48.9298 54.7457 44.6735H50.7457C50.7457 46.7402 49.0817 48.3979 47.0508 48.3979V52.3979ZM39.3559 44.6735C39.3559 48.9298 42.7912 52.3979 47.0508 52.3979V48.3979C45.0199 48.3979 43.3559 46.7402 43.3559 44.6735H39.3559ZM39.4087 43.7652C39.3737 44.0639 39.3559 44.367 39.3559 44.6735H43.3559C43.3559 44.5227 43.3647 44.3747 43.3816 44.2301L39.4087 43.7652ZM41.3951 41.9977H39.2V45.9977H41.3951V41.9977ZM39.2 41.9977L38.001 41.9977L38.001 45.9977L39.2 45.9977L39.2 41.9977ZM38.001 41.9977L37.7 41.9977L37.7 45.9977L38.001 45.9977L38.001 41.9977ZM37.7 41.9977H23.4183V45.9977H37.7V41.9977ZM25.4576 44.6734C25.4576 44.3669 25.4397 44.0638 25.4048 43.7653L21.4319 44.23C21.4488 44.3747 21.4576 44.5226 21.4576 44.6734H25.4576ZM17.7627 52.3978C22.0222 52.3978 25.4576 48.9297 25.4576 44.6734H21.4576C21.4576 46.7401 19.7936 48.3978 17.7627 48.3978V52.3978ZM10.0678 44.6734C10.0678 48.9297 13.5032 52.3978 17.7627 52.3978V48.3978C15.7318 48.3978 14.0678 46.7401 14.0678 44.6734H10.0678ZM10.1206 43.7653C10.0856 44.0639 10.0678 44.3669 10.0678 44.6734H14.0678C14.0678 44.5226 14.0766 44.3747 14.0935 44.23L10.1206 43.7653ZM54.171 41.7403C53.024 38.9369 50.2744 36.949 47.0508 36.949V40.949C48.585 40.949 49.9118 41.8935 50.4688 43.255L54.171 41.7403ZM47.0508 36.949C43.8272 36.949 41.0775 38.9369 39.9306 41.7403L43.6327 43.255C44.1897 41.8935 45.5166 40.949 47.0508 40.949V36.949ZM41.7817 40.4977H39.5009V44.4977H41.7817V40.4977ZM41.5009 42.4975L41.5001 32.2975L37.5001 32.2978L37.5009 42.4978L41.5009 42.4975ZM39.5001 34.2977H51.4869V30.2977H39.5001V34.2977ZM51.4869 34.2977C51.2604 34.2977 51.037 34.2464 50.8332 34.1477L52.5763 30.5475C52.2367 30.3831 51.8642 30.2977 51.4869 30.2977V34.2977ZM50.8332 34.1477L53.0179 35.2055L54.761 31.6053L52.5763 30.5475L50.8332 34.1477ZM53.0179 35.2055C53.1904 35.289 53.3 35.4638 53.3 35.6555H57.3C57.3 33.9304 56.3137 32.3571 54.761 31.6053L53.0179 35.2055ZM53.3 35.6555V42.4977H57.3V35.6555H53.3ZM55.3 40.4977H52.3199V44.4977H55.3V40.4977ZM39.5 23.4977H43.6908V19.4977H39.5V23.4977ZM41.5 30.4977V21.4977H37.5V30.4977H41.5ZM51.0705 28.4977H39.5V32.4977H51.0705V28.4977ZM45.9133 24.8529L49.2925 31.4135L52.8485 29.5818L49.4693 23.0213L45.9133 24.8529ZM43.6908 23.4977C44.627 23.4977 45.4847 24.0207 45.9133 24.8529L49.4693 23.0213C48.3548 20.8575 46.1248 19.4977 43.6908 19.4977V23.4977ZM13.2782 29.4633H14.4662V25.4633H13.2782V29.4633ZM11.2782 21.4153V27.4633H15.2782V21.4153H11.2782ZM17.1212 19.4153H13.2782V23.4153H17.1212V19.4153ZM19.1212 22.3783V21.4153H15.1212V22.3783H19.1212ZM14.4662 24.3783H17.1212V20.3783H14.4662V24.3783ZM16.4662 23.8273V22.3783H12.4662V23.8273H16.4662ZM16.9322 21.8273H14.4662V25.8273H16.9322V21.8273ZM18.9322 24.7903V23.8273H14.9322V24.7903H18.9322ZM14.4662 26.7903H16.9322V22.7903H14.4662V26.7903ZM16.4662 27.4633V24.7903H12.4662V27.4633H16.4662ZM21.3442 24.1243V22.3783H17.3442V24.1243H21.3442ZM20.4872 22.1243H19.3442V26.1243H20.4872V22.1243ZM19.9056 22.3897C20.2241 22.1167 20.5155 22.1243 20.4872 22.1243V26.1243C21.0828 26.1243 21.8542 25.9878 22.5087 25.4268L19.9056 22.3897ZM19.4682 23.2513C19.4682 23.2058 19.4744 23.0734 19.5442 22.8976C19.6192 22.7089 19.7488 22.5191 19.932 22.3675L22.4823 25.449C23.246 24.817 23.4682 23.9479 23.4682 23.2513H19.4682ZM19.932 24.135C19.7488 23.9834 19.6192 23.7936 19.5442 23.6049C19.4744 23.4292 19.4682 23.2967 19.4682 23.2513H23.4682C23.4682 22.5546 23.246 21.6855 22.4823 21.0535L19.932 24.135ZM20.4872 24.3783C20.5155 24.3783 20.2241 24.3858 19.9056 24.1128L22.5087 21.0757C21.8542 20.5147 21.0828 20.3783 20.4872 20.3783V24.3783ZM19.3442 24.3783H20.4872V20.3783H19.3442V24.3783ZM16.1562 21.4153V27.4633H20.1562V21.4153H16.1562ZM20.4962 19.4153H18.1562V23.4153H20.4962V19.4153ZM23.4137 20.3297C22.5415 19.6122 21.4601 19.4153 20.4962 19.4153V23.4153C20.7247 23.4153 20.8559 23.44 20.9155 23.4566C20.97 23.4718 20.9376 23.4723 20.8726 23.4188L23.4137 20.3297ZM24.7012 23.2513C24.7012 22.2203 24.3729 21.1031 23.3987 20.3174L20.8876 23.4311C20.8485 23.3995 20.8097 23.3598 20.7759 23.3137C20.7423 23.268 20.7208 23.226 20.7081 23.1946C20.6837 23.1344 20.7012 23.1381 20.7012 23.2513H24.7012ZM24.063 25.3765C24.4984 24.73 24.7012 23.9995 24.7012 23.2513H20.7012C20.7012 23.264 20.6998 23.251 20.7084 23.2215C20.7174 23.191 20.7314 23.1626 20.7453 23.1421L24.063 25.3765ZM22.3515 26.753C23.0411 26.4747 23.6381 26.014 24.0683 25.3687L20.7401 23.1499C20.7571 23.1242 20.7824 23.0957 20.8127 23.0716C20.842 23.0481 20.8605 23.0412 20.8548 23.0436L22.3515 26.753ZM24.7101 26.5415L23.3781 23.9765L19.8282 25.82L21.1602 28.385L24.7101 26.5415ZM21.6752 29.4633H22.9352V25.4633H21.6752V29.4633ZM18.6669 26.0085L19.8999 28.3845L23.4504 26.542L22.2174 24.166L18.6669 26.0085ZM19.3442 27.0873H20.4422V23.0873H19.3442V27.0873ZM21.3442 27.4633V25.0873H17.3442V27.4633H21.3442ZM18.1562 29.4633H19.3442V25.4633H18.1562V29.4633ZM30.0425 27.4633V26.5003H26.0425V27.4633H30.0425ZM23.9745 29.4633H28.0425V25.4633H23.9745V29.4633ZM21.9745 21.4153V27.4633H25.9745V21.4153H21.9745ZM27.9525 19.4153H23.9745V23.4153H27.9525V19.4153ZM29.9525 22.3783V21.4153H25.9525V22.3783H29.9525ZM25.1625 24.3783H27.9525V20.3783H25.1625V24.3783ZM27.1625 23.8363V22.3783H23.1625V23.8363H27.1625ZM27.8535 21.8363H25.1625V25.8363H27.8535V21.8363ZM29.8535 24.7813V23.8363H25.8535V24.7813H29.8535ZM25.1625 26.7813H27.8535V22.7813H25.1625V26.7813ZM27.1625 26.5003V24.7813H23.1625V26.5003H27.1625ZM28.0425 24.5003H25.1625V28.5003H28.0425V24.5003ZM35.2808 27.4633V26.5003H31.2808V27.4633H35.2808ZM29.2128 29.4633H33.2808V25.4633H29.2128V29.4633ZM27.2128 21.4153V27.4633H31.2128V21.4153H27.2128ZM33.1908 19.4153H29.2128V23.4153H33.1908V19.4153ZM35.1908 22.3783V21.4153H31.1908V22.3783H35.1908ZM30.4008 24.3783H33.1908V20.3783H30.4008V24.3783ZM32.4008 23.8363V22.3783H28.4008V23.8363H32.4008ZM33.0918 21.8363H30.4008V25.8363H33.0918V21.8363ZM35.0918 24.7813V23.8363H31.0918V24.7813H35.0918ZM30.4008 26.7813H33.0918V22.7813H30.4008V26.7813ZM32.4008 26.5003V24.7813H28.4008V26.5003H32.4008ZM33.2808 24.5003H30.4008V28.5003H33.2808V24.5003Z" fill="black" mask="url(#path-2-inside-1_2270_231512)"/>
</svg>
